<svg width="858" height="229" viewBox="0 0 858 229" fill="none" xmlns="http://www.w3.org/2000/svg">
<path d="M80.2639 27.7016C80.7649 28.8559 81.7858 32.1453 83.3267 37.5704C84.0201 40.0327 84.386 42.649 84.4245 45.4192H79.1661C75.4678 40.1866 71.654 36.4354 67.7246 34.1653C63.7951 31.8569 59.4034 30.7026 54.5495 30.7026C48.5782 30.7026 43.7629 33.0303 40.1031 37.6857C35.1335 43.9955 32.6486 52.7869 32.6486 64.06C32.6486 70.6007 33.0725 75.2561 33.9201 78.0262C35.307 82.5277 37.0597 86.2021 39.1785 89.0492C40.7965 91.2037 42.9152 92.9158 45.5349 94.1855C48.9249 95.9168 52.5463 96.7824 56.3986 96.7824C60.6363 96.7824 64.7197 95.4744 68.6491 92.858C72.617 90.2035 76.4116 86.2597 80.0328 81.0272C81.4583 80.758 83.3267 80.604 85.6381 80.5655C85.484 82.0276 85.2337 83.5473 84.8868 85.1249C84.7714 85.7404 84.3283 88.1835 83.5578 92.4541L83.0376 94.1855L82.2288 96.898C79.8788 98.7062 76.5657 100.072 72.2897 100.995C68.052 101.88 62.8321 102.323 56.6297 102.323C51.8913 102.323 47.4033 101.88 43.1658 100.995C38.9666 100.111 35.3646 98.7062 32.3598 96.7824C27.9681 94.0123 24.5202 91.0113 22.0161 87.7794C19.5122 84.5476 17.6437 81.0272 16.411 77.2183C15.2168 73.4093 14.6196 69.1386 14.6196 64.4063C14.6196 52.9409 18.395 43.4762 25.9455 36.0121C33.5347 28.548 43.2042 24.816 54.954 24.816C59.7309 24.816 64.219 25.0661 68.418 25.5664C72.6557 26.0281 76.6043 26.7398 80.2639 27.7016ZM93.1502 100.995C93.1502 99.8412 93.2658 98.4754 93.4969 96.898L100.72 95.6282C101.606 95.436 102.665 95.1281 103.898 94.7048L104.65 80.2771C104.495 75.0828 104.418 71.197 104.418 68.6191L104.476 67.234C104.592 65.6567 104.65 61.6937 104.65 55.3456L104.534 53.6719L104.65 48.8241L104.592 43.8033V41.3216C104.592 39.0901 104.418 36.4738 104.072 33.4728C104.033 33.2035 103.879 32.7418 103.609 32.0877C103.301 31.9723 102.955 31.8953 102.569 31.8569C102.222 31.8185 101.857 31.7606 101.471 31.6836C99.9689 31.4144 98.3701 31.2219 96.675 31.1067L95.8083 30.8759C94.7682 30.7602 93.9784 30.6064 93.439 30.4142C93.3237 29.2983 93.2658 28.5866 93.2658 28.2787C93.2658 27.817 93.3813 27.1823 93.6125 26.3742C94.383 26.2203 95.4616 26.1433 96.8485 26.1433C98.2353 26.1433 99.1984 26.1241 99.7378 26.0857C104.438 26.5858 107.924 26.8552 110.197 26.8937C111.237 26.8937 112.277 26.9321 113.317 27.0091C114.396 27.0475 115.34 27.0667 116.149 27.0667C117.42 27.0667 120.521 26.8745 125.452 26.4898C126.261 26.2973 127.147 26.2011 128.11 26.2011C129.536 26.2011 130.73 26.2781 131.693 26.432C131.732 27.2399 131.751 27.817 131.751 28.1633C131.751 28.7788 131.674 29.5292 131.52 30.4142L121.35 32.0301C120.502 32.4148 120.078 32.9727 120.078 33.7036L120.252 35.8389L120.309 36.7623L120.252 39.3016L120.136 41.264V41.7257C120.175 42.1488 120.194 42.5142 120.194 42.8221L120.136 50.1514C120.175 50.8439 120.194 51.3634 120.194 51.7097C120.194 51.9021 120.155 52.5177 120.078 53.5565C120.04 54.172 120.02 54.8069 120.02 55.4609C120.02 56.0382 120.078 57.4038 120.194 59.5585C121.272 59.7509 122.178 59.8663 122.91 59.9047L131.462 60.0778H135.623L146.024 60.1356L156.136 59.8469C157.446 59.8469 158.833 59.7123 160.297 59.4431C160.374 58.135 160.432 54.9223 160.47 49.8053L160.586 47.2082L160.239 37.3972L159.835 33.3574C159.719 33.0881 159.45 32.8379 159.026 32.607C157.677 31.8377 154.981 30.9719 150.936 30.0101C150.204 29.8563 149.51 29.6638 148.855 29.433C148.933 28.0863 149.087 26.9899 149.318 26.1433C150.165 26.1049 150.685 26.0857 150.878 26.0857L156.483 26.1433C160.066 26.605 163.706 26.8359 167.405 26.8359C168.252 26.8359 168.926 26.8166 169.427 26.7782L176.939 26.5474C177.633 26.509 178.307 26.4704 178.962 26.432C180.349 26.1241 181.774 25.9703 183.238 25.9703C184.355 25.9703 185.703 26.0281 187.282 26.1433C187.244 27.644 187.147 29.0097 186.994 30.2409C183.45 30.9719 181.119 31.5106 180.002 31.8569C178.923 32.1647 177.825 32.607 176.708 33.1843L176.361 34.3386V35.3196L176.419 36.8201L176.361 37.5704C176.284 38.3782 176.246 38.9939 176.246 39.4172V40.8599C176.284 42.5912 176.304 43.553 176.304 43.7455V51.0748L176.361 56.6151L176.246 63.9446C176.207 65.6375 176.265 69.1002 176.419 74.3327V82.5277L176.535 89.3377C176.535 90.6074 176.496 92.1463 176.419 93.9547C177.228 94.1855 177.979 94.3779 178.673 94.5318C182.294 95.3013 185.028 96.0899 186.877 96.898L187.051 100.938C185.511 100.976 184.605 100.995 184.336 100.995C182.487 100.995 180.368 100.88 177.979 100.649C174.821 100.303 169.735 100.13 162.724 100.13C159.565 100.13 155.481 100.38 150.473 100.88C149.934 100.88 149.279 100.765 148.509 100.534C148.547 98.764 148.644 97.5136 148.798 96.7824L153.247 95.7438L157.928 94.9935C158.39 94.878 158.987 94.7048 159.719 94.474C160.143 91.3577 160.374 86.1829 160.413 78.9496L160.47 74.0442C160.239 72.005 160.124 69.5619 160.124 66.7147C158.698 66.5993 157.157 66.5223 155.501 66.4839L128.688 66.1954L128.168 66.1376L127.764 66.0798C127.494 66.0798 127.186 66.0992 126.839 66.1376C125.838 66.176 124.99 66.1954 124.297 66.1954H122.679C121.947 66.1954 121.118 66.33 120.194 66.5993L119.963 70.9276V71.6779C120.04 72.7167 120.078 73.3901 120.078 73.6978V91.5886C120.078 92.5888 120.136 93.6084 120.252 94.6472L120.83 94.9935L129.324 96.3207C129.748 96.4748 130.075 96.571 130.306 96.6094C130.807 96.7248 131.231 96.898 131.578 97.1289C131.693 98.0137 131.751 98.61 131.751 98.9179C131.751 99.418 131.674 100.111 131.52 100.995C130.133 101.034 128.958 101.053 127.995 101.053C127.147 101.053 126.358 101.034 125.626 100.995C125.279 100.995 124.951 100.976 124.643 100.938L116.496 100.592C114.569 100.399 111.873 100.303 108.406 100.303L107.192 100.361C105.574 100.438 104.63 100.495 104.361 100.534C101.972 100.842 98.2353 100.995 93.1502 100.995ZM194.217 26.4898C196.413 26.605 198.32 26.7782 199.938 27.0091C202.982 27.4324 206.506 27.644 210.513 27.644C211.9 27.644 215.463 27.5284 221.203 27.2975C229.794 26.9515 237.557 26.7782 244.491 26.7782L254.95 26.6628C257.3 26.6628 260.767 26.9515 265.351 27.5284C266.045 28.2979 266.39 29.3368 266.39 30.645V42.5334L266.507 44.8997C266.507 45.1306 266.488 45.4768 266.45 45.9385L264.079 46.0539C263.772 46.0539 263.117 46.0155 262.115 45.9385C261.768 45.169 261.305 44.0341 260.728 42.5334L258.417 38.436C257.531 36.7046 256.298 34.9349 254.719 33.1265C253.755 32.8573 252.522 32.7032 251.02 32.6648C250.636 32.6264 249.46 32.5302 247.496 32.3762C243.912 32.0685 240.061 31.9145 235.939 31.9145C231.238 31.9145 227.039 31.9915 223.341 32.1453C223.226 33.1073 223.169 36.8971 223.169 43.5146L223.283 53.2102V60.4819C224.247 60.5973 225.075 60.6551 225.769 60.6551C232.664 60.6551 237.575 60.5203 240.502 60.251C243.431 59.9818 245.242 59.6161 245.935 59.1544C246.629 58.6543 247.244 57.8079 247.784 56.6151C248.132 55.7687 248.805 52.9409 249.807 48.1316L250.558 48.0738L253.909 48.1316C254.064 51.5559 254.142 54.1528 254.142 55.9226C254.142 59.9626 254.103 62.5595 254.025 63.7137C253.986 64.868 253.968 65.7721 253.968 66.4263C253.968 67.4649 254.025 69.1386 254.142 71.4471C254.256 73.7171 254.314 75.4099 254.314 76.5257V77.7954H250.21C250.057 77.1798 249.768 75.9102 249.345 73.9864C248.574 70.4083 247.881 68.1768 247.265 67.2918C246.802 66.5993 246.031 66.0798 244.953 65.7337C244.182 65.4643 241.331 65.3296 236.401 65.3296C230.584 65.3296 226.21 65.4835 223.283 65.7913C223.244 66.7917 223.226 67.4457 223.226 67.7535C223.226 72.3321 223.302 76.141 223.457 79.1805L223.341 91.6462C223.341 93.1083 223.86 94.1085 224.901 94.6472C226.48 95.4552 231.316 95.859 239.406 95.859C244.761 95.859 249.306 95.4552 253.043 94.6472C255.625 94.0701 257.897 92.7812 259.861 90.7804C262.481 88.2027 264.658 84.5862 266.39 79.9306C267.585 79.8154 268.569 79.7576 269.338 79.7576C269.761 79.7576 270.397 79.7768 271.246 79.8154C271.13 80.7772 271.034 81.5851 270.956 82.2391L270.61 83.9706L268.473 94.878L267.431 101.457C264.928 101.573 262.944 101.63 261.479 101.63C259.323 101.63 253.563 101.438 244.201 101.053C237.614 100.784 229.678 100.649 220.395 100.649C215.772 100.649 210.09 100.842 203.348 101.226H200.92L193.928 101.457V97.475C194.66 97.2827 196.123 97.0711 198.32 96.8402C202.327 96.3785 205.101 95.763 206.641 94.9935C207.064 93.8776 207.277 92.4734 207.277 90.7804C207.277 90.1265 207.257 89.0107 207.218 87.4333L207.277 85.6442L207.103 63.8869L207.161 57.3654L206.872 48.1316L206.93 41.61L206.41 34.4538C206.41 34.2616 206.371 33.8769 206.293 33.2996C205.909 32.8765 205.332 32.607 204.561 32.4918C204.137 32.4148 203.559 32.2994 202.828 32.1453C200.631 31.6836 198.512 31.4144 196.471 31.3376C195.739 31.299 194.892 31.2219 193.928 31.1067L194.217 26.4898ZM279.22 101.573L279.334 97.4174C280.183 97.2249 281.588 96.9365 283.554 96.5516C285.518 96.1669 287.484 95.7244 289.447 95.2243L290.546 94.5318C290.93 92.9929 291.124 91.4153 291.124 89.7994V89.4531L290.891 76.1218L290.951 70.5237L290.719 62.271L290.834 52.4598L290.141 33.1265C289.564 32.5878 287.694 32.0493 284.536 31.5106C283.765 31.3568 282.648 31.0489 281.183 30.5872L279.797 30.2409V26.2011L287.426 26.4898C292.049 26.9515 298.848 27.1823 307.824 27.1823C312.33 27.1823 317.031 27.0667 321.924 26.8359L323.022 26.7782L325.853 26.8359L327.009 26.7782H329.435L339.779 26.432C340.241 26.432 340.839 26.3936 341.571 26.3165C342.34 26.2395 343.054 26.1819 343.708 26.1433C343.94 27.2975 344.093 28.4518 344.171 29.606L345.038 40.4558C345.038 41.61 344.921 42.495 344.69 43.1107C343.303 43.303 342.283 43.3992 341.628 43.3992C340.857 43.3992 340.241 43.226 339.779 42.8799C339.548 42.649 339.104 41.7833 338.449 40.2828C336.831 36.3968 335.445 34.1077 334.289 33.4152C333.172 32.684 330.014 32.3186 324.812 32.3186L316.839 32.5494C313.447 32.5878 310.77 32.7803 308.806 33.1265C308.382 33.2035 307.767 33.3958 306.957 33.7036C306.456 34.5886 306.206 35.7236 306.206 37.1087L306.38 43.9763L306.206 51.8251C306.206 55.8265 306.341 58.2888 306.609 59.2122C306.957 59.4431 307.245 59.5777 307.476 59.6161L311.58 59.6739H318.514C320.054 59.7123 322.425 59.5393 325.622 59.1544C327.817 58.8851 329.165 58.5775 329.666 58.231C330.591 57.6155 331.245 56.8459 331.632 55.9226C332.055 54.9608 332.364 52.6523 332.556 48.9971C332.749 48.9971 333.268 48.9779 334.117 48.9395C334.655 48.9011 335.021 48.8819 335.213 48.8819C335.637 48.8819 336.486 48.9395 337.756 49.055L337.41 58.2888C337.371 60.251 337.294 61.944 337.179 63.3675L337.294 64.6371C337.333 65.0218 337.353 67.869 337.353 73.1784C337.353 73.5247 337.333 74.1018 337.294 74.9098C336.561 75.0636 335.985 75.1406 335.561 75.1406C335.252 75.1406 334.502 75.0252 333.307 74.7944C332.959 74.0634 332.575 73.0052 332.151 71.6201C331.266 68.5807 330.302 66.8109 329.261 66.3107C327.412 65.3873 321.596 64.9256 311.811 64.9256C310.385 64.9256 308.728 65.0604 306.842 65.3296C306.572 66.9456 306.437 68.8116 306.437 70.9276L306.726 88.2411C306.764 91.4345 307.11 93.3967 307.767 94.1279C308.19 94.5896 309.634 95.0513 312.099 95.513L313.255 95.6282C314.989 95.7438 316.511 95.9939 317.82 96.3785L319.381 96.7248C319.535 97.7252 319.612 98.4946 319.612 99.0333C319.612 99.6104 319.553 100.341 319.438 101.226L318.34 101.169L316.55 101.226L308.344 100.822C307.419 100.784 303.105 100.765 295.4 100.765C293.281 100.765 291.258 100.88 289.333 101.111C286.289 101.457 284.632 101.63 284.362 101.63C281.858 101.63 280.144 101.611 279.22 101.573ZM353.185 58.6351C353.609 58.0196 354.359 57.4424 355.439 56.9037C357.595 55.7879 359.369 54.2874 360.756 52.4022C362.142 50.517 362.836 48.7279 362.836 47.0351C362.836 44.9575 361.795 43.3608 359.715 42.245C356.749 40.7061 354.881 39.4556 354.11 38.4938C353.108 37.224 352.608 35.7428 352.608 34.0499C352.608 31.8569 353.435 29.9717 355.092 28.3942C356.749 26.7782 358.771 25.9703 361.159 25.9703C364.241 25.9703 367.054 27.3938 369.596 30.2409C372.178 33.0881 373.468 36.6276 373.468 40.8599C373.468 45.1306 372.389 49.0357 370.232 52.5755C368.074 56.115 365.186 58.9236 361.564 61.0012C359.213 62.3478 357.385 63.0212 356.074 63.0212C355.458 63.0212 354.92 62.7519 354.457 62.2132C353.879 61.5207 353.455 60.328 353.185 58.6351ZM426.977 28.1633C427.363 29.4714 427.709 31.4528 428.018 34.1077C428.48 38.0705 428.711 41.1484 428.711 43.3416C428.711 44.0341 428.634 44.7843 428.48 45.5922L427.901 45.7653L423.741 45.4768L423.048 45.3614C421.354 40.2828 419.658 36.8393 417.962 35.0311C415.035 31.9531 411.587 30.4142 407.62 30.4142C403.844 30.4142 400.839 31.4144 398.604 33.4152C396.409 35.3772 395.31 37.8205 395.31 40.7445C395.31 43.2068 396.409 45.573 398.604 47.8429C400.762 50.113 405.346 52.2868 412.358 54.3644C414.708 55.057 417.539 56.1728 420.853 57.7117C424.203 59.2506 426.746 60.9244 428.48 62.7327C430.792 65.118 432.371 67.4265 433.218 69.6581C434.104 71.851 434.547 74.6019 434.547 77.9108C434.547 81.5273 433.872 85.0863 432.524 88.5876C431.792 90.4343 430.618 92.1849 429 93.8392C427.844 94.9935 426.052 96.3593 423.626 97.9367C421.198 99.4758 418.676 100.592 416.056 101.284C413.475 101.977 410.142 102.323 406.059 102.323C403.362 102.323 400.146 101.938 396.409 101.169L389.475 99.1487C387.548 98.61 386.335 98.1291 385.834 97.7058C385.641 97.552 385.467 97.1865 385.314 96.6094V95.9747C385.314 95.5514 385.218 92.9158 385.026 88.0681C384.948 85.5672 384.909 83.7974 384.909 82.7586V80.5655L390.225 80.4501C392.074 84.7208 393.269 87.2985 393.809 88.1835C395.003 90.1457 396.313 91.7424 397.738 92.9736C399.201 94.1663 400.936 95.1281 402.938 95.859C404.943 96.5516 407.119 96.898 409.469 96.898C411.548 96.898 413.841 96.4556 416.344 95.5706C418.848 94.6856 420.853 93.2429 422.354 91.2421C423.896 89.2031 424.666 87.0292 424.666 84.7208C424.666 81.8736 423.338 79.2381 420.679 76.8144C419.061 75.3137 414.708 73.3131 407.62 70.8124C400.531 68.3115 395.619 66.0798 392.884 64.1178C390.149 62.1554 387.992 59.5393 386.412 56.269C384.833 52.9601 384.044 49.7859 384.044 46.7465C384.044 40.629 386.239 35.435 390.63 31.1643C395.022 26.8937 401.494 24.7582 410.046 24.7582C411.895 24.7582 414.63 25.0853 418.253 25.7394C420.448 26.1241 423.356 26.9321 426.977 28.1633ZM474.361 23.2579H477.945C478.215 23.681 478.407 23.9889 478.522 24.1813C479.602 26.0281 480.428 27.2399 481.007 27.817C481.508 27.9709 484.147 28.0479 488.923 28.0479C491.889 28.0479 494.53 28.0287 496.841 27.9901L497.995 27.817L504.988 27.7592L518.047 27.8748H535.902L539.312 27.3554C539.813 27.0091 540.353 26.0857 540.93 24.5852C541.085 24.2389 541.296 23.758 541.566 23.1423L544.109 23.0847C544.493 23.0847 545.072 23.1039 545.843 23.1423C545.88 25.7972 545.901 29.7985 545.901 35.1463L545.958 40.2828L545.901 43.226C545.901 44.2264 545.823 45.0921 545.669 45.8231C544.09 46.3232 542.703 46.6311 541.509 46.7465C540.507 45.246 539.408 43.0721 538.214 40.225C537.06 37.378 536.328 35.8005 536.019 35.4928C535.556 34.9925 535.016 34.6654 534.401 34.5116C533.476 34.3192 529.393 34.223 522.15 34.223C521.072 34.223 519.722 34.3 518.106 34.4538C517.873 35.9545 517.758 37.1855 517.758 38.1473L517.816 45.8809V62.848L518.047 81.1427L517.99 88.6452C517.99 91.2999 518.221 93.3005 518.683 94.6472C519.299 94.9165 520.436 95.1665 522.093 95.3974C522.4 95.436 523.826 95.7438 526.368 96.3207C527.524 96.5902 528.545 96.898 529.43 97.2441C529.624 98.6292 529.721 99.4758 529.721 99.7834C529.721 100.13 529.663 100.63 529.547 101.284C528.7 101.323 528.006 101.342 527.466 101.342C523.498 101.342 520.127 101.207 517.354 100.938C514.58 100.63 509.552 100.476 502.272 100.476C501.116 100.476 497.727 100.707 492.102 101.169C489.907 101.323 488.481 101.399 487.825 101.399C487.788 100.822 487.749 100.38 487.71 100.072L487.653 98.7448V98.2831C488.5 97.1673 490.099 96.3401 492.448 95.8014C496.455 94.8396 499.228 93.9739 500.769 93.2045C501.155 92.4734 501.386 91.5116 501.464 90.3187C501.732 85.7018 501.867 78.3533 501.867 68.273L501.579 46.4578C501.579 40.4558 501.464 36.8201 501.231 35.5504C501.155 35.2041 501.02 34.9541 500.828 34.8003C500.635 34.6078 500.366 34.4924 500.018 34.4538C498.823 34.3 494.933 34.223 488.346 34.223C484.724 34.223 482.298 34.5694 481.064 35.2619C479.407 36.2237 476.924 38.8399 473.61 43.1107C472.647 44.3418 471.935 44.9575 471.473 44.9575C469.699 44.0341 468.564 43.2838 468.063 42.7067C469.257 40.2058 470.914 35.2041 473.032 27.7016C473.649 25.5086 474.091 24.0273 474.361 23.2579ZM539.255 101.169L539.371 97.2441C540.102 97.0133 541.392 96.7248 543.241 96.3785C546.207 95.8014 547.999 95.2821 548.617 94.8204C549.271 94.3587 550.061 93.2429 550.986 91.473L562.657 60.9436L576.354 25.0469C577.624 25.0853 578.837 25.1047 579.993 25.1047H582.593L583.114 26.1433L593.168 49.9205C595.441 54.9608 597.484 59.8663 599.294 64.6371C601.105 69.3695 602.665 73.2361 603.975 76.2371C604.746 78.0454 605.805 80.758 607.153 84.3745C607.847 86.3367 608.906 88.799 610.33 91.7616C611.101 93.3775 611.68 94.3201 612.065 94.5896C612.758 95.1665 613.875 95.5514 615.415 95.7438C616.996 95.9361 618.69 96.3785 620.5 97.0711C620.694 98.3407 620.791 99.2833 620.791 99.899C620.791 100.168 620.77 100.592 620.733 101.169C617.882 101.169 614.742 101.034 611.314 100.765C607.885 100.495 604.803 100.361 602.068 100.361C599.024 100.361 596.828 100.399 595.48 100.476L585.657 100.995L582.826 101.111C582.826 99.7642 582.883 98.4754 582.998 97.2441L589.413 95.859C591.339 95.3589 592.456 94.9743 592.763 94.7048C593.15 94.3201 593.342 93.8776 593.342 93.3775C593.342 92.8774 593.246 92.3579 593.054 91.8194L590.742 86.1635L586.177 74.852L564.102 74.7944C563.294 76.6411 561.618 81.1619 559.076 88.3567C558.343 90.3957 557.977 91.7808 557.977 92.512C557.977 93.5122 558.247 94.2239 558.787 94.6472C559.673 95.3781 561.367 95.8976 563.872 96.2055C564.218 96.2823 565.586 96.494 567.974 96.8402C568.013 98.2253 568.033 99.1871 568.033 99.7258C568.033 100.149 567.994 100.592 567.916 101.053C565.527 101.053 559.826 100.726 550.812 100.072L548.443 100.476C545.592 100.938 542.875 101.169 540.296 101.169H539.255ZM566.413 68.7347C575.429 68.85 580.744 68.9078 582.364 68.9078L583.808 68.85C582.652 65.4259 581.149 61.4437 579.3 56.9037C577.451 52.3252 575.949 48.8433 574.793 46.4578L566.413 68.7347ZM622.64 101.688L622.754 97.0711C623.679 96.8402 624.796 96.6286 626.107 96.4363C628.611 96.0899 630.652 95.5898 632.231 94.9357C632.771 94.0509 633.117 93.2045 633.272 92.3963C633.579 90.2419 633.735 87.0677 633.735 82.874L633.618 58.3466C633.618 55.8073 633.483 49.1704 633.215 38.436C633.137 35.5504 632.945 33.7613 632.636 33.0687C632.52 32.8379 632.327 32.6456 632.057 32.4918C631.442 32.0685 630.286 31.8185 628.592 31.7414C627.86 31.703 625.972 31.4914 622.928 31.1067L622.754 27.0091L635.698 26.7206L654.595 26.0857L656.849 26.0281C657.311 25.9895 657.773 25.9703 658.236 25.9703C658.62 25.9703 659.641 25.9895 661.298 26.0281H664.996C667.923 25.9895 671.102 26.432 674.53 27.3554C675.725 27.6632 677.304 28.3172 679.27 29.3175C681.233 30.2793 682.929 31.5298 684.355 33.0687C685.817 34.5694 686.897 36.2622 687.591 38.1473C688.284 40.0327 688.63 42.0333 688.63 44.1494C688.63 46.4964 688.11 48.6125 687.069 50.4978C686.03 52.3446 684.451 54.0566 682.332 55.6341C681.254 56.4036 678.768 57.6733 674.878 59.4431C680.695 60.7511 685.124 63.1558 688.168 66.6571C691.211 70.1198 692.733 73.9864 692.733 78.2571C692.733 80.7964 692.252 83.4511 691.289 86.2213C690.596 88.2989 689.419 90.2227 687.765 91.9925C685.568 94.3393 683.238 96.1093 680.771 97.3019C678.345 98.4946 674.974 99.4758 670.66 100.245C668.502 100.63 665.227 100.822 660.836 100.822L651.011 100.592C646.851 100.592 641.9 100.784 636.161 101.169C634.543 101.246 630.036 101.419 622.64 101.688ZM649.567 57.8849C651.109 58.1158 652.919 58.231 655 58.231C660.778 58.231 665.15 57.173 668.116 55.057C671.083 52.9023 672.566 49.2088 672.566 43.9763C672.566 40.2828 671.159 37.2048 668.349 34.7424C665.536 32.2801 661.298 31.0489 655.634 31.0489C654.018 31.0489 651.86 31.2605 649.162 31.6836C649.162 32.5686 649.201 33.8383 649.278 35.4928C649.471 38.7631 649.567 43.3416 649.567 49.228L649.51 54.0758C649.51 54.9223 649.528 56.192 649.567 57.8849ZM650.26 94.6472C652.764 95.686 655.096 96.2055 657.254 96.2055C661.644 96.2055 665.227 95.5514 668.001 94.2431C670.775 92.8966 672.798 91.0307 674.068 88.6452C675.34 86.2597 675.974 83.2781 675.974 79.6998C675.974 76.0062 675.283 73.0438 673.896 70.8124C671.969 67.7343 669.637 65.6759 666.903 64.6371C664.168 63.5599 660.064 63.0212 654.595 63.0212C652.169 63.0212 650.491 63.1944 649.567 63.5405V70.6391L649.51 79.1805L649.683 92.4541C649.722 93.0697 649.915 93.8008 650.26 94.6472ZM701.285 96.4363C702.48 96.0899 704.155 95.763 706.313 95.4552C708.508 95.1089 709.799 94.9357 710.184 94.9357C711.687 94.8972 712.689 94.6472 713.19 94.1855C713.419 93.2621 713.536 92.4926 713.536 91.877L713.419 84.4899L713.767 76.9874V72.1974L713.824 66.5415L713.71 60.5395L713.941 47.6699L713.998 41.8409V41.0331C713.728 36.9931 713.458 34.7809 713.19 34.3962C712.957 33.9729 711.861 33.4536 709.895 32.8379C709.703 32.761 708.97 32.4724 707.7 31.9723C706.737 31.5876 705.869 31.3182 705.098 31.1643C703.75 30.8181 702.807 30.4142 702.267 29.9525C702.192 28.9521 702.153 28.1825 702.153 27.644C702.153 27.3361 702.171 26.8745 702.21 26.2589C702.558 26.0665 702.922 25.9703 703.308 25.9703C704.233 25.9703 707.584 26.1241 713.362 26.432L721.626 26.3742L727.75 26.4898C730.409 26.4898 733.819 26.3165 737.98 25.9703C739.211 25.8548 739.925 25.7972 740.117 25.7972C740.694 25.7972 741.099 25.9511 741.33 26.2589C741.639 26.682 741.793 27.4516 741.793 28.5674C741.793 29.4522 741.582 30.1255 741.157 30.5872C740.927 30.8565 740.078 31.0873 738.616 31.2797L731.449 32.9535C731.256 33.0303 730.929 33.1843 730.467 33.4152C730.313 33.6844 730.197 33.9153 730.121 34.1077L730.062 35.7236L729.89 39.3594V40.3982L729.947 41.0331C729.947 41.2254 729.89 42.2834 729.773 44.2072C729.734 44.7073 729.716 45.2076 729.716 45.7077C729.716 46.3232 729.755 47.362 729.832 48.8241C729.947 51.1326 730.004 53.1524 730.004 54.8839C730.004 56.8845 729.947 59.1738 729.832 61.7515C729.794 62.7133 729.773 63.9638 729.773 65.5029L729.542 92.858C729.542 94.0123 729.734 94.7626 730.121 95.1089L735.609 95.3397L739.019 95.2821L742.66 95.3974C748.862 95.3974 753.736 94.6856 757.279 93.2621C759.938 92.1849 761.671 91.1075 762.481 90.0303C763.79 88.876 764.85 87.6256 765.658 86.2791C766.506 84.9324 767.449 82.7008 768.49 79.5845H770.34C771.264 79.5845 772.303 79.6614 773.459 79.8154V81.4313C773.459 84.2015 773.113 89.0492 772.42 95.9747C772.15 98.7448 771.88 100.438 771.61 101.053C770.724 101.207 770.166 101.284 769.935 101.284H767.797L764.792 101.342C764.445 101.342 762.154 101.188 757.915 100.88C757.144 100.842 753.466 100.707 746.878 100.476C740.291 100.245 733.838 100.13 727.521 100.13L715.731 100.476C711.186 100.592 706.929 100.803 702.961 101.111H702.095C701.862 101.111 701.498 101.092 700.997 101.053C700.919 100.63 700.88 100.265 700.88 99.9567C700.88 98.3407 701.015 97.1673 701.285 96.4363ZM776.233 26.4898C778.43 26.605 780.336 26.7782 781.954 27.0091C784.998 27.4324 788.522 27.644 792.529 27.644C793.916 27.644 797.479 27.5284 803.219 27.2975C811.81 26.9515 819.573 26.7782 826.507 26.7782L836.966 26.6628C839.316 26.6628 842.783 26.9515 847.367 27.5284C848.061 28.2979 848.407 29.3368 848.407 30.645V42.5334L848.523 44.8997C848.523 45.1306 848.505 45.4768 848.466 45.9385L846.095 46.0539C845.788 46.0539 845.134 46.0155 844.131 45.9385C843.784 45.169 843.321 44.0341 842.744 42.5334L840.433 38.436C839.547 36.7046 838.314 34.9349 836.735 33.1265C835.771 32.8573 834.538 32.7032 833.037 32.6648C832.652 32.6264 831.476 32.5302 829.512 32.3762C825.928 32.0685 822.077 31.9145 817.955 31.9145C813.254 31.9145 809.055 31.9915 805.357 32.1453C805.242 33.1073 805.185 36.8971 805.185 43.5146L805.299 53.2102V60.4819C806.263 60.5973 807.091 60.6551 807.785 60.6551C814.68 60.6551 819.591 60.5203 822.519 60.251C825.448 59.9818 827.258 59.6161 827.951 59.1544C828.645 58.6543 829.261 57.8079 829.801 56.6151C830.148 55.7687 830.821 52.9409 831.823 48.1316L832.574 48.0738L835.925 48.1316C836.08 51.5559 836.158 54.1528 836.158 55.9226C836.158 59.9626 836.119 62.5595 836.041 63.7137C836.003 64.868 835.984 65.7721 835.984 66.4263C835.984 67.4649 836.041 69.1386 836.158 71.4471C836.272 73.7171 836.33 75.4099 836.33 76.5257V77.7954H832.227C832.073 77.1798 831.785 75.9102 831.361 73.9864C830.59 70.4083 829.897 68.1768 829.281 67.2918C828.819 66.5993 828.048 66.0798 826.969 65.7337C826.198 65.4643 823.347 65.3296 818.417 65.3296C812.6 65.3296 808.227 65.4835 805.299 65.7913C805.261 66.7917 805.242 67.4457 805.242 67.7535C805.242 72.3321 805.318 76.141 805.473 79.1805L805.357 91.6462C805.357 93.1083 805.876 94.1085 806.917 94.6472C808.497 95.4552 813.332 95.859 821.422 95.859C826.777 95.859 831.322 95.4552 835.059 94.6472C837.641 94.0701 839.913 92.7812 841.877 90.7804C844.497 88.2027 846.674 84.5862 848.407 79.9306C849.601 79.8154 850.585 79.7576 851.354 79.7576C851.778 79.7576 852.414 79.7768 853.262 79.8154C853.146 80.7772 853.05 81.5851 852.972 82.2391L852.626 83.9706L850.489 94.878L849.448 101.457C846.944 101.573 844.96 101.63 843.495 101.63C841.339 101.63 835.579 101.438 826.217 101.053C819.63 100.784 811.694 100.649 802.411 100.649C797.788 100.649 792.106 100.842 785.364 101.226H782.936L775.944 101.457V97.475C776.677 97.2827 778.139 97.0711 780.336 96.8402C784.343 96.3785 787.117 95.763 788.657 94.9935C789.081 93.8776 789.293 92.4734 789.293 90.7804C789.293 90.1265 789.273 89.0107 789.234 87.4333L789.293 85.6442L789.119 63.8869L789.177 57.3654L788.888 48.1316L788.946 41.61L788.426 34.4538C788.426 34.2616 788.387 33.8769 788.31 33.2996C787.925 32.8765 787.348 32.607 786.577 32.4918C786.153 32.4148 785.575 32.2994 784.844 32.1453C782.647 31.6836 780.528 31.4144 778.487 31.3376C777.755 31.299 776.908 31.2219 775.944 31.1067L776.233 26.4898Z" fill="white"/>
<path d="M92.1103 173.539L97.7156 174.953C96.5404 179.551 94.4217 183.062 91.359 185.486C88.3156 187.891 84.5885 189.093 80.1776 189.093C75.6124 189.093 71.8949 188.17 69.0249 186.323C66.1742 184.456 63.9976 181.763 62.4952 178.243C61.012 174.722 60.2705 170.942 60.2705 166.902C60.2705 162.497 61.1083 158.659 62.784 155.389C64.4791 152.099 66.8773 149.608 69.9785 147.915C73.0987 146.203 76.5274 145.347 80.2641 145.347C84.5018 145.347 88.0653 146.424 90.9546 148.579C93.8438 150.733 95.8566 153.763 96.9931 157.668L91.4747 158.967C90.4923 155.889 89.067 153.648 87.1984 152.243C85.33 150.839 82.9801 150.137 80.1487 150.137C76.8933 150.137 74.1679 150.916 71.972 152.474C69.7954 154.032 68.2641 156.129 67.378 158.765C66.4919 161.381 66.0491 164.084 66.0491 166.873C66.0491 170.471 66.569 173.616 67.6092 176.309C68.6686 178.983 70.3058 180.984 72.521 182.311C74.7361 183.639 77.1341 184.302 79.7153 184.302C82.855 184.302 85.5131 183.398 87.6897 181.59C89.8663 179.782 91.3397 177.098 92.1103 173.539ZM110.933 167.768C110.933 160.746 112.821 155.254 116.596 151.291C120.372 147.309 125.245 145.318 131.216 145.318C135.126 145.318 138.651 146.251 141.791 148.117C144.931 149.983 147.319 152.59 148.956 155.937C150.613 159.265 151.441 163.045 151.441 167.277C151.441 171.567 150.574 175.405 148.841 178.791C147.107 182.177 144.651 184.744 141.473 186.495C138.295 188.227 134.866 189.093 131.187 189.093C127.2 189.093 123.637 188.131 120.497 186.207C117.357 184.283 114.978 181.657 113.36 178.329C111.742 175.001 110.933 171.481 110.933 167.768ZM116.712 167.854C116.712 172.952 118.08 176.973 120.815 179.916C123.569 182.84 127.017 184.302 131.158 184.302C135.377 184.302 138.844 182.821 141.56 179.858C144.295 176.896 145.662 172.693 145.662 167.248C145.662 163.805 145.075 160.804 143.9 158.245C142.744 155.668 141.04 153.677 138.786 152.272C136.552 150.849 134.038 150.137 131.245 150.137C127.277 150.137 123.858 151.503 120.988 154.234C118.137 156.947 116.712 161.487 116.712 167.854ZM164.977 167.768C164.977 160.746 166.864 155.254 170.64 151.291C174.415 147.309 179.288 145.318 185.26 145.318C189.169 145.318 192.695 146.251 195.835 148.117C198.975 149.983 201.362 152.59 203 155.937C204.655 159.265 205.484 163.045 205.484 167.277C205.484 171.567 204.618 175.405 202.884 178.791C201.151 182.177 198.694 184.744 195.517 186.495C192.338 188.227 188.91 189.093 185.23 189.093C181.243 189.093 177.68 188.131 174.54 186.207C171.401 184.283 169.022 181.657 167.404 178.329C165.786 175.001 164.977 171.481 164.977 167.768ZM170.755 167.854C170.755 172.952 172.123 176.973 174.858 179.916C177.613 182.84 181.06 184.302 185.202 184.302C189.42 184.302 192.887 182.821 195.604 179.858C198.339 176.896 199.705 172.693 199.705 167.248C199.705 163.805 199.119 160.804 197.943 158.245C196.787 155.668 195.082 153.677 192.83 152.272C190.594 150.849 188.081 150.137 185.287 150.137C181.32 150.137 177.901 151.503 175.031 154.234C172.181 156.947 170.755 161.487 170.755 167.854ZM220.493 188.371V146.068H226.098V167.046L247.132 146.068H254.732L236.962 163.209L255.512 188.371H248.116L233.032 166.96L226.098 173.712V188.371H220.493ZM269.135 188.371V146.068H274.739V188.371H269.135ZM292.58 188.371V146.068H298.329L320.578 179.281V146.068H325.951V188.371H320.201L297.954 155.129V188.371H292.58ZM363.208 171.779V166.816L381.15 166.787V182.484C378.397 184.677 375.554 186.332 372.627 187.448C369.698 188.545 366.693 189.093 363.613 189.093C359.452 189.093 355.667 188.207 352.257 186.437C348.868 184.649 346.305 182.071 344.572 178.704C342.838 175.338 341.972 171.577 341.972 167.422C341.972 163.305 342.828 159.467 344.543 155.908C346.277 152.33 348.76 149.675 351.996 147.944C355.232 146.213 358.96 145.347 363.178 145.347C366.242 145.347 369.005 145.847 371.472 146.847C373.955 147.829 375.902 149.204 377.307 150.974C378.713 152.744 379.783 155.052 380.514 157.899L375.458 159.284C374.822 157.13 374.033 155.437 373.09 154.206C372.145 152.974 370.797 151.993 369.044 151.262C367.291 150.512 365.345 150.137 363.208 150.137C360.647 150.137 358.431 150.531 356.562 151.32C354.694 152.09 353.182 153.109 352.026 154.379C350.891 155.648 350.003 157.043 349.369 158.563C348.289 161.179 347.751 164.017 347.751 167.075C347.751 170.846 348.396 174.001 349.685 176.54C350.996 179.079 352.893 180.965 355.379 182.196C357.862 183.427 360.501 184.043 363.295 184.043C365.721 184.043 368.091 183.581 370.403 182.657C372.714 181.715 374.467 180.715 375.66 179.656V171.779H363.208ZM429.285 188.371L418.046 146.068H423.795L430.237 173.799C430.931 176.704 431.528 179.589 432.029 182.456C433.107 177.935 433.743 175.328 433.935 174.636L441.998 146.068H448.758L454.825 167.479C456.347 172.789 457.445 177.781 458.118 182.456C458.658 179.782 459.361 176.713 460.228 173.251L466.874 146.068H472.508L460.892 188.371H455.491L446.561 156.139C445.811 153.446 445.369 151.791 445.234 151.176C444.79 153.119 444.376 154.773 443.991 156.139L435.004 188.371H429.285ZM486.708 188.371V146.068H492.313V188.371H486.708ZM520.989 188.371V151.06H507.034V146.068H540.607V151.06H526.594V188.371H520.989ZM554.547 188.371V146.068H560.152V163.44H582.168V146.068H587.774V188.371H582.168V168.432H560.152V188.371H554.547ZM629.35 188.371V146.068H634.955V183.379H655.815V188.371H629.35ZM668.802 167.768C668.802 160.746 670.69 155.254 674.466 151.291C678.24 147.309 683.114 145.318 689.085 145.318C692.994 145.318 696.52 146.251 699.66 148.117C702.8 149.983 705.187 152.59 706.826 155.937C708.481 159.265 709.309 163.045 709.309 167.277C709.309 171.567 708.444 175.405 706.709 178.791C704.977 182.177 702.521 184.744 699.342 186.495C696.164 188.227 692.735 189.093 689.055 189.093C685.069 189.093 681.505 188.131 678.366 186.207C675.226 184.283 672.848 181.657 671.23 178.329C669.612 175.001 668.802 171.481 668.802 167.768ZM674.58 167.854C674.58 172.952 675.949 176.973 678.684 179.916C681.437 182.84 684.886 184.302 689.028 184.302C693.246 184.302 696.713 182.821 699.429 179.858C702.164 176.896 703.53 172.693 703.53 167.248C703.53 163.805 702.944 160.804 701.768 158.245C700.613 155.668 698.908 153.677 696.655 152.272C694.42 150.849 691.907 150.137 689.115 150.137C685.146 150.137 681.727 151.503 678.857 154.234C676.006 156.947 674.58 161.487 674.58 167.854ZM736.656 188.371L720.245 146.068H726.312L737.32 176.8C738.207 179.262 738.949 181.571 739.546 183.725C740.201 181.417 740.961 179.108 741.828 176.8L753.269 146.068H758.99L742.405 188.371H736.656ZM772.121 188.371V146.068H802.748V151.06H777.727V164.017H801.159V168.98H777.727V183.379H803.73V188.371H772.121Z" fill="url(#paint0_radial_142_2369)"/>
<path d="M848.754 221.613H0V229H848.754V221.613Z" fill="white"/>
<defs>
<radialGradient id="paint0_radial_142_2369" cx="0" cy="0" r="1" gradientUnits="userSpaceOnUse" gradientTransform="translate(432.698 167.133) rotate(90) scale(34.1653 694.61)">
<stop stop-color="#FAD9A7"/>
<stop offset="1" stop-color="#FA9800" stop-opacity="0"/>
</radialGradient>
</defs>
</svg>
