<svg width="34" height="34" viewBox="0 0 34 34" fill="none" xmlns="http://www.w3.org/2000/svg">
<path fill-rule="evenodd" clip-rule="evenodd" d="M16.7717 33.5245C25.9865 33.5245 33.4566 26.0545 33.4566 16.8397C33.4566 7.62486 25.9865 0.154785 16.7717 0.154785C7.5569 0.154785 0.0868301 7.62486 0.0868301 16.8397C0.0868301 25.1657 6.18541 32.0673 14.1592 33.3212C15.0104 33.455 15.8829 33.5245 16.7717 33.5245Z" fill="#C6A777"/>
<path d="M16.7717 0.154785C7.59501 0.154785 0.0868301 7.67638 0.0868301 16.9402C0.0868301 25.3161 6.19349 32.2681 14.1688 33.5245V21.7982H9.93089V16.9402H14.1688V13.238C14.1688 9.03328 16.6549 6.72152 20.4757 6.72152C22.2944 6.72152 24.1964 7.03981 24.1964 7.03981V11.1775H22.0942C20.0252 11.1775 19.3745 12.4674 19.3745 13.7908V16.9402H24.0129L23.2621 21.7982H19.3745V33.5245C23.3062 32.9011 26.8864 30.887 29.4687 27.8458C32.0511 24.8045 33.4655 20.9366 33.4565 16.9402C33.4565 7.67638 25.9484 0.154785 16.7717 0.154785Z" fill="black"/>
</svg>
