<svg width="34" height="34" viewBox="0 0 34 34" fill="none" xmlns="http://www.w3.org/2000/svg">
<g clip-path="url(#clip0_128_2132)">
<path fill-rule="evenodd" clip-rule="evenodd" d="M16.6849 33.5245C25.8997 33.5245 33.3698 26.0545 33.3698 16.8397C33.3698 7.62486 25.8997 0.154785 16.6849 0.154785C7.47007 0.154785 0 7.62486 0 16.8397C0 26.0545 7.47007 33.5245 16.6849 33.5245Z" fill="black"/>
<path fill-rule="evenodd" clip-rule="evenodd" d="M23.2012 16.1979H10.1683C8.0964 16.1979 6.41726 17.7267 6.41726 19.7859V23.3783C6.41726 25.4372 8.0964 27.1073 10.1683 27.1073H23.2012C25.2726 27.1073 26.9525 25.4374 26.9525 23.3783V19.8142C26.9525 17.7551 25.2726 16.1979 23.2012 16.1979ZM12.7241 19.1198H11.4674V24.9273H10.2526V19.1198H8.99623V18.1315H12.7241V19.1198ZM15.9431 25.1754H14.8655V24.6259C14.6653 24.8293 14.4594 24.9842 14.2433 25.089C14.0282 25.1981 13.8198 25.2496 13.6173 25.2496C13.3671 25.2496 13.1815 25.1754 13.0537 25.0251C12.9288 24.8751 12.8645 24.6533 12.8645 24.3532V20.1614H13.942V24.008C13.942 24.1265 13.9655 24.2122 14.0088 24.2644C14.0555 24.3193 14.1293 24.3442 14.2305 24.3442C14.3082 24.3442 14.4096 24.3096 14.5306 24.2393C14.653 24.1684 14.7636 24.0787 14.865 23.9699V20.1614H15.9426V25.1754H15.9431ZM20.4584 24.0025C20.4584 24.3565 20.3742 24.6286 20.205 24.8187C20.0371 25.0084 19.7917 25.2397 19.4727 25.2397C19.2605 25.2397 18.7702 25.2042 18.6062 25.1307C18.4414 25.0582 18.286 24.946 18.1454 24.7912V25.1752H17.0557V18.2417H18.1454V20.5681C18.2913 20.4166 18.4455 20.2996 18.6069 20.2205C18.7717 20.1399 19.2395 20.1011 19.4069 20.1011C19.7484 20.1011 20.0087 20.0689 20.1883 20.2828C20.3688 20.4967 20.4581 20.8098 20.4581 21.2202V24.0025H20.4584ZM24.3779 22.7064H22.3164V23.6511C22.3164 23.9148 22.3507 24.0979 22.4214 24.2003C22.4935 24.303 22.615 24.3528 22.7868 24.3528C22.9659 24.3528 23.0905 24.3094 23.1619 24.2228C23.2318 24.1355 23.2691 23.9461 23.2691 23.6509V23.4226H24.3781V23.6799C24.3781 24.1937 24.2441 24.581 23.9716 24.8423C23.703 25.1005 23.2996 25.2296 22.7621 25.2296C22.2791 25.2296 21.8985 25.0925 21.6216 24.8165C21.3457 24.5431 21.2052 24.1631 21.2052 23.6799V21.4278C21.2052 20.9944 21.3581 20.638 21.6637 20.3646C21.9689 20.0912 22.3599 19.9548 22.8434 19.9548C23.3371 19.9548 23.7163 20.0815 23.9813 20.3348C24.246 20.5888 24.3784 20.9528 24.3784 21.428V22.7064H24.3779ZM22.797 20.8316C22.6247 20.8316 22.5029 20.8768 22.4277 20.9704C22.3519 21.0581 22.3164 21.2092 22.3164 21.4196V21.9263H23.2691V21.4196C23.2691 21.2092 23.2306 21.0581 23.1554 20.9704C23.0823 20.8768 22.9608 20.8316 22.797 20.8316ZM18.5965 20.8973C18.5198 20.8973 18.4428 20.9125 18.3678 20.9457C18.2928 20.9779 18.219 21.0306 18.1457 21.0991V24.2226C18.2323 24.3032 18.3182 24.3653 18.4012 24.401C18.4844 24.4356 18.5699 24.455 18.6611 24.455C18.7937 24.455 19.1925 24.4195 19.2547 24.3477C19.3159 24.2768 19.3479 24.1631 19.3479 24.0027V21.4128C19.3479 21.2427 19.3111 21.1149 19.2346 21.0272C19.1562 20.9409 18.7414 20.8973 18.5965 20.8973ZM19.95 14.9525C20.1695 14.9525 20.3955 14.8893 20.6283 14.7676C20.8629 14.6442 21.0875 14.4637 21.3012 14.2281V14.8679H22.4716V9.08879H21.3012V13.4759C21.1929 13.6015 21.0721 13.7046 20.9415 13.7867C20.8095 13.8678 20.7003 13.9079 20.6145 13.9079C20.5049 13.9079 20.4246 13.8775 20.377 13.8152C20.3281 13.7544 20.3012 13.6557 20.3012 13.5199V9.08879H19.1334V13.919C19.1334 14.2634 19.2024 14.5209 19.3382 14.6915C19.4758 14.8646 19.678 14.9525 19.95 14.9525ZM16.5077 15.0143C17.0391 15.0143 17.4561 14.8732 17.7605 14.5921C18.0623 14.3093 18.2137 13.9236 18.2137 13.4289V10.4427C18.2137 10.0031 18.0588 9.64069 17.7516 9.36151C17.4412 9.08302 17.0449 8.94286 16.5607 8.94286C16.0293 8.94286 15.6053 9.07541 15.2909 9.34053C14.9765 9.60565 14.8193 9.9609 14.8193 10.4102V13.406C14.8193 13.8975 14.9727 14.2865 15.2792 14.5779C15.5862 14.8681 15.9957 15.0143 16.5077 15.0143ZM16.0226 10.366C16.0226 10.2401 16.0674 10.1389 16.1555 10.0596C16.2458 9.98188 16.3612 9.94384 16.5038 9.94384C16.6589 9.94384 16.7839 9.98188 16.8793 10.0596C16.9742 10.1389 17.0218 10.2401 17.0218 10.366V13.5146C17.0218 13.6691 16.9749 13.7915 16.8812 13.8803C16.7876 13.969 16.6621 14.0126 16.5035 14.0126C16.3491 14.0126 16.2297 13.9704 16.1469 13.8819C16.0641 13.795 16.0223 13.6735 16.0223 13.5146V10.366H16.0226ZM11.8748 14.8681H13.1914V11.1569L14.7239 6.57202H13.3857L12.5708 9.70409H12.488L11.6329 6.57202H10.3064L11.8745 11.3029V14.8681H11.8748Z" fill="#C6A777"/>
</g>
<defs>
<clipPath id="clip0_128_2132">
<rect width="33.3698" height="33.3698" fill="white" transform="translate(0 0.154785)"/>
</clipPath>
</defs>
</svg>
