<svg width="34" height="34" viewBox="0 0 34 34" fill="none" xmlns="http://www.w3.org/2000/svg">
<path fill-rule="evenodd" clip-rule="evenodd" d="M17.3151 33.5245C26.5299 33.5245 34 26.0545 34 16.8397C34 7.62486 26.5299 0.154785 17.3151 0.154785C8.10032 0.154785 0.630249 7.62486 0.630249 16.8397C0.630249 26.0545 8.10032 33.5245 17.3151 33.5245Z" fill="black"/>
<path d="M26.2137 10.8201C25.5382 11.1293 24.81 11.3324 24.0555 11.4296C24.8276 10.9614 25.4242 10.2194 25.7049 9.32729C24.9767 9.76895 24.1696 10.0781 23.3186 10.2548C22.6255 9.49513 21.6517 9.05347 20.5463 9.05347C18.4846 9.05347 16.8002 10.7494 16.8002 12.8429C16.8002 13.1432 16.8353 13.4347 16.8967 13.7085C13.7734 13.5496 10.9924 12.0391 9.14124 9.75129C8.81664 10.3078 8.6324 10.9614 8.6324 11.6504C8.6324 12.9666 9.29039 14.1325 10.3081 14.795C9.68518 14.795 9.10615 14.6184 8.59731 14.3534C8.59731 14.3534 8.59731 14.3534 8.59731 14.3799C8.59731 16.2172 9.89573 17.7541 11.6153 18.0986C11.2994 18.187 10.9661 18.2311 10.6239 18.2311C10.387 18.2311 10.1502 18.2046 9.92205 18.1605C10.3958 19.6533 11.7732 20.7662 13.4313 20.7927C12.1504 21.8174 10.5274 22.4181 8.75522 22.4181C8.45694 22.4181 8.15865 22.4004 7.86037 22.3651C9.52726 23.4427 11.51 24.0699 13.6331 24.0699C20.5463 24.0699 24.3451 18.293 24.3451 13.2846C24.3451 13.1167 24.3451 12.9577 24.3363 12.7899C25.0732 12.2599 25.7049 11.5886 26.2137 10.8201Z" fill="#C6A777"/>
</svg>
