<svg width="34" height="34" viewBox="0 0 34 34" fill="none" xmlns="http://www.w3.org/2000/svg">
<path fill-rule="evenodd" clip-rule="evenodd" d="M17.2283 33.5245C26.4431 33.5245 33.9132 26.0545 33.9132 16.8397C33.9132 7.62486 26.4431 0.154785 17.2283 0.154785C8.01349 0.154785 0.543415 7.62486 0.543415 16.8397C0.543415 26.0545 8.01349 33.5245 17.2283 33.5245Z" fill="black"/>
<path d="M13.4909 7.94104H20.9657C23.8133 7.94104 26.1269 10.2547 26.1269 13.1022V20.5771C26.1269 21.9459 25.5831 23.2587 24.6152 24.2266C23.6473 25.1945 22.3345 25.7382 20.9657 25.7382H13.4909C10.6433 25.7382 8.32969 23.4246 8.32969 20.5771V13.1022C8.32969 11.7334 8.87346 10.4206 9.84137 9.45272C10.8093 8.48481 12.122 7.94104 13.4909 7.94104M13.3129 9.72076C12.4633 9.72076 11.6485 10.0583 11.0477 10.659C10.4469 11.2598 10.1094 12.0746 10.1094 12.9243V20.755C10.1094 22.5258 11.5421 23.9585 13.3129 23.9585H21.1437C21.9933 23.9585 22.8081 23.621 23.4089 23.0202C24.0097 22.4195 24.3472 21.6046 24.3472 20.755V12.9243C24.3472 11.1534 22.9145 9.72076 21.1437 9.72076H13.3129ZM21.9001 11.0556C22.1951 11.0556 22.478 11.1727 22.6866 11.3813C22.8952 11.5899 23.0124 11.8729 23.0124 12.1679C23.0124 12.4629 22.8952 12.7458 22.6866 12.9544C22.478 13.163 22.1951 13.2802 21.9001 13.2802C21.6051 13.2802 21.3221 13.163 21.1135 12.9544C20.9049 12.7458 20.7877 12.4629 20.7877 12.1679C20.7877 11.8729 20.9049 11.5899 21.1135 11.3813C21.3221 11.1727 21.6051 11.0556 21.9001 11.0556ZM17.2283 12.3903C18.4083 12.3903 19.54 12.8591 20.3744 13.6935C21.2088 14.5279 21.6776 15.6596 21.6776 16.8396C21.6776 18.0197 21.2088 19.1514 20.3744 19.9858C19.54 20.8202 18.4083 21.2889 17.2283 21.2889C16.0483 21.2889 14.9166 20.8202 14.0822 19.9858C13.2478 19.1514 12.779 18.0197 12.779 16.8396C12.779 15.6596 13.2478 14.5279 14.0822 13.6935C14.9166 12.8591 16.0483 12.3903 17.2283 12.3903M17.2283 14.1701C16.5203 14.1701 15.8413 14.4513 15.3406 14.952C14.84 15.4526 14.5587 16.1316 14.5587 16.8396C14.5587 17.5477 14.84 18.2267 15.3406 18.7273C15.8413 19.228 16.5203 19.5092 17.2283 19.5092C17.9363 19.5092 18.6153 19.228 19.116 18.7273C19.6166 18.2267 19.8979 17.5477 19.8979 16.8396C19.8979 16.1316 19.6166 15.4526 19.116 14.952C18.6153 14.4513 17.9363 14.1701 17.2283 14.1701Z" fill="#C6A777"/>
</svg>
