<svg width="43" height="43" viewBox="0 0 43 43" fill="none" xmlns="http://www.w3.org/2000/svg">
<path d="M42.5 21.5C42.5 33.098 33.098 42.5 21.5 42.5C9.90202 42.5 0.5 33.098 0.5 21.5C0.5 9.90202 9.90202 0.5 21.5 0.5C33.098 0.5 42.5 9.90202 42.5 21.5Z" fill="black" stroke="#C6A777"/>
<path d="M24.2253 25.0353L23.9139 24.7241L23.5657 24.9936C22.1218 26.1117 20.3414 26.708 18.5148 26.6853C16.6882 26.6626 14.9232 26.0222 13.5076 24.8685C12.0919 23.7148 11.1092 22.116 10.7195 20.3327C10.3298 18.5495 10.5561 16.6869 11.3615 15.0486C12.1669 13.4102 13.5039 12.0928 15.1547 11.3112C16.8055 10.5295 18.6726 10.3298 20.4516 10.7445C22.2306 11.1593 23.8164 12.164 24.9506 13.5948C26.0848 15.0256 26.7005 16.7981 26.6974 18.6233C26.6934 20.4158 26.0928 22.156 24.9902 23.5699L24.7183 23.9185L25.031 24.2311L31.5427 30.7384L30.7375 31.5431L24.2253 25.0353ZM14.7618 24.3884C15.9025 25.1501 17.2436 25.5566 18.6154 25.5566C20.455 25.5566 22.2192 24.8263 23.5201 23.5263C24.821 22.2263 25.5519 20.463 25.5519 18.6244C25.5519 17.2533 25.145 15.9129 24.3828 14.7729C23.6206 13.6329 22.5372 12.7445 21.2698 12.2198C20.0023 11.6952 18.6077 11.5579 17.2622 11.8254C15.9167 12.0928 14.6808 12.753 13.7107 13.7225C12.7405 14.6919 12.0799 15.9271 11.8122 17.2719C11.5445 18.6167 11.6819 20.0106 12.2069 21.2774C12.732 22.5441 13.6211 23.6267 14.7618 24.3884Z" fill="#C6A777" stroke="#C6A777"/>
</svg>
